PathFileType	4	(X/Y/Z)	C:/Users/opensim2020/Desktop/walking_exp_matlab/subject01_walking04_straight_03.trc	
DataRate	CameraRate	NumFrames	NumMarkers	Units	OrigDataRate	OrigDataStartFrame	OrigNumFrames	
100.00	100.00	4	43	mm	100.00	2102	211	
Frame#	Time	LFHD			RFHD			LBHD			RBHD			C7			T10			CLAV			STRN			RBAK			LSHO			LUPA			LELB			LFRM			LWRA			LWRB			LFIN			RSHO			RUPA			RELB			RFRM			RWRA			RWRB			RFIN			LASI			RASI			LPSI			RPSI			LTHI			LKNE			LTIB			LANK			LHEE			LTOE			RTHI			RKNE			RTIB			RANK			RHEE			RTOE			*39			*40			*41			*42			
		X1	Y1	Z1	X2	Y2	Z2	X3	Y3	Z3	X4	Y4	Z4	X5	Y5	Z5	X6	Y6	Z6	X7	Y7	Z7	X8	Y8	Z8	X9	Y9	Z9	X10	Y10	Z10	X11	Y11	Z11	X12	Y12	Z12	X13	Y13	Z13	X14	Y14	Z14	X15	Y15	Z15	X16	Y16	Z16	X17	Y17	Z17	X18	Y18	Z18	X19	Y19	Z19	X20	Y20	Z20	X21	Y21	Z21	X22	Y22	Z22	X23	Y23	Z23	X24	Y24	Z24	X25	Y25	Z25	X26	Y26	Z26	X27	Y27	Z27	X28	Y28	Z28	X29	Y29	Z29	X30	Y30	Z30	X31	Y31	Z31	X32	Y32	Z32	X33	Y33	Z33	X34	Y34	Z34	X35	Y35	Z35	X36	Y36	Z36	X37	Y37	Z37	X38	Y38	Z38	X39	Y39	Z39	X40	Y40	Z40	X41	Y41	Z41	X42	Y42	Z42	X43	Y43	Z43	

1	0.000	-1187.16907	-1009.51959	1666.07190	-1074.44543	-985.34161	1673.36206	-1169.04956	-1119.57971	1607.03149	-1049.90454	-1097.50903	1612.19507	-1119.58533	-1143.36169	1426.81677	-1078.30237	-1184.74207	1138.51709	-1134.31677	-1001.10608	1355.32849	-1137.61560	-964.18738	1198.63892	-1019.62378	-1189.37939	1240.68420	-1286.53308	-1084.38330	1373.11230	-1370.44604	-1103.24670	1189.23145	-1385.22253	-1080.85120	1039.13391	-1421.27454	-999.60016	961.10852	-1421.97583	-873.71704	901.01416	-1436.88232	-921.90076	868.68842	-1463.55518	-851.24927	834.72760	-976.91742	-1039.70020	1393.26440	-853.20093	-1110.30481	1213.81299	-839.17316	-1131.59766	1093.16541	-796.52771	-1130.10608	976.71820	-808.25323	-1082.87036	841.21503	-765.74365	-1120.81714	857.72345	-762.51624	-1105.79858	772.12244	-1200.17920	-1039.16858	920.16772	-987.05597	-999.13788	935.77478	-1111.44934	-1212.53015	944.18256	-969.44843	-1183.08496	948.21661	-1249.97180	-1118.82092	600.50433	-1239.38171	-1147.79700	466.82635	-1238.90393	-1227.89478	291.98697	-1191.07214	-1259.65076	67.72140	-1127.80029	-1287.29871	38.68022	-1237.21497	-1118.66943	28.47124	-909.39764	-967.03156	612.75787	-939.47852	-916.39691	462.97836	-928.96497	-942.49060	291.14682	-974.24542	-927.76935	82.88964	-1026.84387	-969.18573	38.18922	-975.10236	-786.74127	56.19529	-1095.31372	-1004.01624	1706.43140	-3101.97095	1973.18408	1023.30524	-3140.56470	2012.58142	1022.02136			 
2	0.010	-1187.17871	-1001.44604	1665.34753	-1074.32422	-977.91559	1672.72217	-1169.72168	-1111.73218	1606.48901	-1050.45361	-1090.40540	1611.64417	-1120.34021	-1136.02734	1426.30859	-1079.35962	-1177.91052	1137.94922	-1134.89197	-993.59418	1354.53735	-1137.61731	-956.86060	1197.90393	-1020.84180	-1182.72400	1240.06030	-1286.92151	-1075.98608	1372.65527	-1371.50940	-1094.02600	1188.98242	-1385.96155	-1071.40234	1038.86755	-1421.79773	-988.74951	961.74500	-1421.84290	-862.04486	903.68616	-1436.59619	-909.68927	870.48212	-1463.30115	-838.46014	837.87390	-976.86523	-1032.67761	1392.69910	-854.14551	-1105.54578	1213.47083	-840.09003	-1127.58105	1093.09338	-797.36414	-1126.51465	976.59570	-808.23206	-1080.12561	840.86328	-766.17834	-1118.64307	857.50269	-762.73901	-1103.89075	771.90131	-1200.65417	-1032.16650	919.51501	-987.44495	-992.47119	935.18054	-1112.32825	-1205.54553	943.51477	-970.39423	-1176.53333	947.80646	-1250.17102	-1114.11780	600.25342	-1239.69299	-1144.76819	466.78946	-1239.08472	-1225.95276	292.61755	-1191.23474	-1259.22168	68.52924	-1127.95398	-1287.12927	39.64466	-1237.25073	-1118.49084	28.37282	-909.40619	-963.44031	611.78094	-939.82605	-910.94000	462.66718	-929.01788	-930.47528	290.34384	-973.75977	-907.04828	82.00370	-1026.22607	-946.95569	36.32678	-974.92010	-764.98041	60.39785	-1095.16846	-996.60339	1705.71326	-3101.83813	1973.16064	1023.38800	-3140.63135	2012.58142	1021.99298			 
3	0.020	-1187.02942	-993.38989	1664.64270	-1073.81384	-970.64795	1671.92358	-1170.20837	-1103.80566	1605.88708	-1050.74451	-1083.01013	1611.30444	-1120.91577	-1128.50842	1425.64746	-1080.17334	-1170.97998	1137.38623	-1135.50928	-985.26019	1353.60352	-1137.36536	-949.54681	1197.09692	-1021.88989	-1175.95898	1239.33228	-1287.13660	-1067.63428	1372.20483	-1372.08765	-1084.82666	1188.66614	-1386.46191	-1062.00500	1038.56213	-1421.77832	-978.20270	962.32806	-1421.59363	-850.69672	906.34515	-1436.37537	-897.74072	872.22461	-1462.69373	-825.85840	840.71442	-977.03918	-1026.64465	1391.75476	-854.87933	-1100.58752	1213.06885	-841.00647	-1123.47058	1092.69824	-798.10114	-1123.04810	976.30756	-808.06683	-1077.15332	840.42316	-766.71283	-1115.46582	857.26196	-763.02753	-1102.05798	771.65723	-1201.12048	-1024.92126	918.95917	-987.67633	-985.00061	934.57538	-1113.06262	-1198.35291	942.70441	-971.19647	-1169.68140	947.03955	-1250.26709	-1109.33740	600.02441	-1239.82690	-1141.46594	466.79285	-1239.17725	-1223.99316	293.26480	-1191.30566	-1258.70154	69.08811	-1127.99731	-1287.28149	41.16059	-1237.34070	-1118.29968	28.32907	-909.19916	-958.41669	610.31079	-940.04572	-905.32568	462.38135	-929.05560	-919.32196	289.59268	-973.09174	-887.62134	82.39880	-1025.34558	-926.01373	34.99739	-974.70880	-744.32062	65.30597	-1095.04614	-988.99286	1704.91479	-3101.85913	1973.02283	1023.29327	-3140.52026	2012.54614	1021.90759			 
4	0.030	-1186.67004	-985.20288	1663.82959	-1073.75928	-963.09351	1670.48962	-1170.48621	-1095.76379	1605.24390	-1050.98267	-1075.83655	1610.42419	-1121.27820	-1120.95935	1425.01746	-1080.78223	-1163.89514	1136.78174	-1133.66846	-978.51526	1352.55774	-1136.72192	-942.22156	1196.22156	-1022.78583	-1169.06323	1238.57202	-1287.17566	-1059.10547	1371.63501	-1372.21460	-1075.60205	1188.27356	-1386.62732	-1052.67578	1038.06995	-1421.40979	-967.77899	962.68628	-1421.12183	-839.75421	908.79785	-1435.90039	-886.02374	873.75989	-1462.31641	-813.46735	843.52710	-976.84723	-1019.81952	1390.92566	-855.46429	-1095.40967	1212.52405	-841.91345	-1118.48035	1092.32385	-798.79773	-1119.28650	976.02991	-807.93616	-1073.73645	839.88336	-767.08734	-1112.58862	856.86719	-763.17432	-1099.02722	771.04987	-1201.44824	-1017.56842	918.44952	-987.91272	-977.84955	933.78571	-1113.64612	-1190.96631	941.83960	-971.84326	-1162.60083	946.31671	-1250.27246	-1104.49561	599.80475	-1239.70386	-1137.97913	466.92920	-1239.13489	-1222.07556	293.99713	-1191.48145	-1258.30359	70.10027	-1128.16174	-1286.77905	42.21735	-1237.41772	-1118.07068	28.27638	-908.94104	-953.91846	609.01862	-940.37756	-899.62341	461.80811	-928.97113	-908.26691	288.99966	-972.39001	-869.15680	82.85027	-1024.29236	-906.07922	34.07087	-974.56567	-725.10376	70.37030	-1094.58020	-981.22278	1704.08240	-3101.93896	1973.12268	1023.51508	-3140.62012	2012.49048	1021.98627			 
